<?xml version="1.0"?>
<svg xmlns="http://www.w3.org/2000/svg" viewBox="0 0 32 32"><title/><path d="M11,30H25a3,3,0,0,0,3-3V9a3,3,0,0,0-3-3H24V5a3,3,0,0,0-3-3H11a1,1,0,0,0-.71.29l-6,6A1,1,0,0,0,4,9V23a3,3,0,0,0,3,3H8v1A3,3,0,0,0,11,30Zm13-7V8h1a1,1,0,0,1,1,1V27a1,1,0,0,1-1,1H11a1,1,0,0,1-1-1V26H21A3,3,0,0,0,24,23ZM10,5.41V7A1,1,0,0,1,9,8H7.41ZM7,24a1,1,0,0,1-1-1V10H9a3,3,0,0,0,3-3V4h9a1,1,0,0,1,1,1V23a1,1,0,0,1-1,1Z"/><path d="M17.84,15.38a4.07,4.07,0,1,0-7.68,0A4.63,4.63,0,0,0,7.47,19.6V21a1,1,0,0,0,1,1H19.53a1,1,0,0,0,1-1V19.6A4.63,4.63,0,0,0,17.84,15.38ZM14,12a2.07,2.07,0,1,1-2.07,2.07A2.07,2.07,0,0,1,14,12Zm4.53,8H9.47v-.4a2.65,2.65,0,0,1,1.8-2.53,4,4,0,0,0,5.46,0,2.65,2.65,0,0,1,1.8,2.53Z"/></svg>
