<svg height="484pt" viewBox="0 -9 484.8 484" width="484pt" xmlns="http://www.w3.org/2000/svg"><path d="m242.398438 9.199219-192 104v232l192 112 192-112v-232zm0 0" fill="#e2c8ac"/><path d="m50.398438 113.199219v232l192 112v-232zm0 0" fill="#ceb195"/><path d="m242.398438 9.199219-192 104 192 112 192-112zm0 0" fill="#ceb195"/><path d="m50.398438 113.199219-40 88 176 112 56-88zm0 0" fill="#e2c8ac"/><path d="m242.398438 9.199219 192 104-192 112zm0 0" fill="#ad8f79"/><path d="m296 70.800781-11.199219-11.199219-42.402343 42.398438-42.398438-42.398438-11.199219 11.199219 42.398438 42.398438-42.398438 42.402343 11.199219 11.199219 42.398438-42.402343 42.402343 42.402343 11.199219-11.199219-42.398438-42.402343zm0 0" fill="#ef4848"/><path d="m434.398438 113.199219 40 96-176 104-56-88zm0 0" fill="#edd9be"/><path d="m484.800781 212.398438-44-104.796876-198.402343-107.203124-198.398438 107.203124-44 96.796876 42.398438 26.402343v118.398438l200 116.800781 200-116.800781v-112zm-20.800781-6.398438-163.199219 96-47.199219-74.398438 176.796876-103.203124zm-45.601562-92.800781-176 102.402343-176-102.402343 176-95.199219zm-364 11.199219 176.800781 103.203124-47.199219 74.398438-163.199219-104zm372 216-184 107.203124-184-107.203124v-99.199219l130.402343 83.199219 45.597657-71.199219v172h16v-172.800781l45.601562 71.203124 130.398438-76.800781zm0 0"/><path d="m188.800781 155.601562 11.199219 11.199219 42.398438-42.402343 42.402343 42.402343 11.199219-11.199219-42.398438-42.402343 42.398438-42.398438-11.199219-11.199219-42.402343 42.398438-42.398438-42.398438-11.199219 11.199219 42.398438 42.398438zm0 0"/></svg>