<svg id="Layer_1" enable-background="new 0 0 72 72" height="512" viewBox="0 0 72 72" width="512" xmlns="http://www.w3.org/2000/svg"><g><path d="m68.9 31.8-6.6-12.3c-.1-.2-.2-.3-.4-.4l-25.5-12.7c-.3-.1-.6-.1-.9 0l-25.3 12.7c-.2.1-.3.3-.4.4l-6.7 12.3c-.3.5-.1 1.1.4 1.4l6.1 3v15.8c0 .4.2.7.6.9l25.4 12.7c.3.1.6.1.9 0l25.4-12.7c.3-.2.6-.5.6-.9v-15.8l6.1-3c.3-.3.5-.9.3-1.4zm-32.9-23.4 23.1 11.6-23.1 11.6-23.1-11.6zm-24.9 12.9 23.6 11.8-5.7 10.5c-13.5-6.7-14.8-7.4-23.6-11.8zm.5 30.1v-14.2l17.3 8.6c.5.2 1.1.1 1.3-.4l4.8-8.8v26.4zm48.8 0-23.4 11.7v-26.5l4.8 8.8c.3.5.8.7 1.3.4l17.3-8.6zm-17.3-7.8-5.7-10.5 23.6-11.8 5.7 10.5c-10 5 .6-.3-23.6 11.8z"/><path d="m34.6 20-2.2 2.2c-.4.4-.4 1 0 1.4s1 .4 1.4 0l2.2-2.2 2.2 2.2c.4.4 1 .4 1.4 0s.4-1 0-1.4l-2.2-2.2 2.2-2.2c.4-.4.4-1 0-1.4s-1-.4-1.4 0l-2.2 2.2-2.2-2.2c-.4-.4-1-.4-1.4 0s-.4 1 0 1.4z"/></g></svg>